<svg width="184" height="44" viewBox="0 0 184 44" fill="none" xmlns="http://www.w3.org/2000/svg">
<g opacity="0.5">
<path d="M16.2693 31.4284C24.9481 31.4284 31.9836 24.3929 31.9836 15.7141C31.9836 14.7306 31.8933 13.7681 31.7204 12.8345C30.7868 12.6617 29.8244 12.5713 28.8408 12.5713C20.162 12.5713 13.1265 19.6068 13.1265 28.2856C13.1265 29.2692 13.2169 30.2317 13.3897 31.1652C14.3233 31.3381 15.2858 31.4284 16.2693 31.4284Z" fill="#212024"/>
<path fill-rule="evenodd" clip-rule="evenodd" d="M13.3899 31.1653C6.08636 29.8127 0.555176 23.4095 0.555176 15.7143C0.555176 7.03553 7.59071 0 16.2695 0C23.9647 0 30.368 5.53118 31.7205 12.8347C30.787 12.6618 29.8245 12.5714 28.8409 12.5714C20.1622 12.5714 13.1266 19.607 13.1266 28.2857C13.1266 29.2693 13.217 30.2318 13.3899 31.1653Z" fill="#212024"/>
<path opacity="0.6" fill-rule="evenodd" clip-rule="evenodd" d="M16.2692 31.4284C24.9479 31.4284 31.9835 24.3928 31.9835 15.7141C31.9835 14.7305 31.8931 13.768 31.7202 12.8345C39.0238 14.187 44.5549 20.5903 44.5549 28.2855C44.5549 36.9643 37.5194 43.9998 28.8406 43.9998C21.1454 43.9998 14.7421 38.4686 13.3896 31.1651C14.3231 31.338 15.2856 31.4284 16.2692 31.4284Z" fill="#212024"/>
<path d="M74.7831 26.9042C74.2231 28.7148 73.2431 30.0682 71.8431 30.9642C70.4431 31.8415 68.8098 32.2802 66.9431 32.2802C65.1138 32.2802 63.5271 31.8975 62.1831 31.1322C60.8578 30.3668 59.8311 29.2748 59.1031 27.8562C58.3938 26.4375 58.0391 24.7388 58.0391 22.7602C58.0391 20.7815 58.4031 19.0828 59.1311 17.6642C59.8591 16.2455 60.8858 15.1535 62.2111 14.3882C63.5364 13.6228 65.0951 13.2402 66.8871 13.2402C68.7724 13.2402 70.3871 13.6415 71.7311 14.4442C73.0938 15.2282 74.0271 16.4228 74.5311 18.0282L71.0311 19.5122C70.7138 18.3922 70.2284 17.5988 69.5751 17.1322C68.9218 16.6468 68.0818 16.4042 67.0551 16.4042C65.5244 16.4042 64.3018 16.9548 63.3871 18.0562C62.4911 19.1388 62.0431 20.7068 62.0431 22.7602C62.0431 24.7948 62.4724 26.3628 63.3311 27.4642C64.1898 28.5655 65.4311 29.1162 67.0551 29.1162C68.0631 29.1162 68.9311 28.8455 69.6591 28.3042C70.4058 27.7628 70.9284 26.9415 71.2271 25.8402L74.7831 26.9042Z" fill="#212024"/>
<path fill-rule="evenodd" clip-rule="evenodd" d="M77.2363 13.9402C77.2363 15.3028 78.0296 15.9842 79.6163 15.9842C81.2029 15.9842 81.9963 15.3028 81.9963 13.9402C81.9963 12.5588 81.2029 11.8682 79.6163 11.8682C78.0296 11.8682 77.2363 12.5588 77.2363 13.9402ZM81.5206 32V18H77.6846V32H81.5206Z" fill="#212024"/>
<path d="M85.5869 32.0002V18.0002H88.9189L89.1709 20.7442C89.5256 19.7922 90.0576 19.0548 90.7669 18.5322C91.4949 17.9908 92.4096 17.7202 93.5109 17.7202C94.1642 17.7202 94.6682 17.8228 95.0229 18.0282L94.5749 21.2482C94.3882 21.1922 94.1549 21.1455 93.8749 21.1082C93.6136 21.0522 93.2682 21.0242 92.8389 21.0242C92.2602 21.0242 91.7096 21.1642 91.1869 21.4442C90.6829 21.7055 90.2629 22.1162 89.9269 22.6762C89.5909 23.2175 89.4229 23.9082 89.4229 24.7482V32.0002H85.5869Z" fill="#212024"/>
<path d="M103.482 17.7202C105.348 17.7202 106.795 18.1215 107.822 18.9242C108.867 19.7268 109.558 20.6975 109.894 21.8362L106.31 23.1242C105.936 21.4255 105.012 20.5762 103.538 20.5762C102.474 20.5762 101.643 20.9495 101.046 21.6962C100.467 22.4428 100.178 23.5535 100.178 25.0282C100.178 26.5215 100.476 27.6322 101.074 28.3602C101.69 29.0695 102.52 29.4242 103.566 29.4242C105.19 29.4242 106.16 28.5935 106.478 26.9322L109.95 28.0522C109.632 29.3028 108.923 30.3202 107.822 31.1042C106.739 31.8882 105.33 32.2802 103.594 32.2802C102.138 32.2802 100.859 31.9908 99.7578 31.4122C98.6751 30.8335 97.8351 30.0028 97.2378 28.9202C96.6404 27.8375 96.3418 26.5308 96.3418 25.0002C96.3418 23.4695 96.6404 22.1628 97.2378 21.0802C97.8538 19.9975 98.6938 19.1668 99.7578 18.5882C100.84 18.0095 102.082 17.7202 103.482 17.7202Z" fill="#212024"/>
<path fill-rule="evenodd" clip-rule="evenodd" d="M123.038 18.5882C121.956 18.0095 120.714 17.7202 119.314 17.7202C117.896 17.7202 116.645 18.0095 115.562 18.5882C114.498 19.1668 113.658 19.9975 113.042 21.0802C112.445 22.1628 112.146 23.4695 112.146 25.0002C112.146 26.5308 112.445 27.8375 113.042 28.9202C113.658 30.0028 114.498 30.8335 115.562 31.4122C116.645 31.9908 117.896 32.2802 119.314 32.2802C120.714 32.2802 121.956 31.9908 123.038 31.4122C124.121 30.8335 124.961 30.0028 125.558 28.9202C126.174 27.8375 126.482 26.5308 126.482 25.0002C126.482 23.4695 126.174 22.1628 125.558 21.0802C124.961 19.9975 124.121 19.1668 123.038 18.5882ZM116.85 21.6962C117.448 20.9495 118.269 20.5762 119.314 20.5762C120.341 20.5762 121.144 20.9495 121.722 21.6962C122.32 22.4242 122.618 23.5255 122.618 25.0002C122.618 26.4748 122.32 27.5855 121.722 28.3322C121.144 29.0602 120.341 29.4242 119.314 29.4242C118.269 29.4242 117.448 29.0602 116.85 28.3322C116.272 27.5855 115.982 26.4748 115.982 25.0002C115.982 23.5255 116.272 22.4242 116.85 21.6962Z" fill="#212024"/>
<path fill-rule="evenodd" clip-rule="evenodd" d="M139.8 18.5882C138.717 18.0095 137.476 17.7202 136.076 17.7202C134.657 17.7202 133.407 18.0095 132.324 18.5882C131.26 19.1668 130.42 19.9975 129.804 21.0802C129.207 22.1628 128.908 23.4695 128.908 25.0002C128.908 26.5308 129.207 27.8375 129.804 28.9202C130.42 30.0028 131.26 30.8335 132.324 31.4122C133.407 31.9908 134.657 32.2802 136.076 32.2802C137.476 32.2802 138.717 31.9908 139.8 31.4122C140.883 30.8335 141.723 30.0028 142.32 28.9202C142.936 27.8375 143.244 26.5308 143.244 25.0002C143.244 23.4695 142.936 22.1628 142.32 21.0802C141.723 19.9975 140.883 19.1668 139.8 18.5882ZM133.612 21.6962C134.209 20.9495 135.031 20.5762 136.076 20.5762C137.103 20.5762 137.905 20.9495 138.484 21.6962C139.081 22.4242 139.38 23.5255 139.38 25.0002C139.38 26.4748 139.081 27.5855 138.484 28.3322C137.905 29.0602 137.103 29.4242 136.076 29.4242C135.031 29.4242 134.209 29.0602 133.612 28.3322C133.033 27.5855 132.744 26.4748 132.744 25.0002C132.744 23.5255 133.033 22.4242 133.612 21.6962Z" fill="#212024"/>
<path d="M150.234 11.8682V27.6882C150.234 28.3415 150.346 28.7988 150.57 29.0602C150.794 29.3215 151.167 29.4522 151.69 29.4522C152.007 29.4522 152.268 29.4335 152.474 29.3962C152.679 29.3588 152.94 29.2842 153.258 29.1722L152.922 31.6922C152.604 31.8788 152.203 32.0188 151.718 32.1122C151.251 32.2242 150.784 32.2802 150.318 32.2802C148.955 32.2802 147.956 31.9535 147.322 31.3002C146.706 30.6282 146.398 29.5642 146.398 28.1082V11.8682H150.234Z" fill="#212024"/>
<path fill-rule="evenodd" clip-rule="evenodd" d="M156.599 30.3762C157.924 31.6455 159.688 32.2802 161.891 32.2802C163.328 32.2802 164.607 31.9815 165.727 31.3842C166.847 30.7682 167.631 29.9095 168.079 28.8082L165.027 27.6322C164.747 28.1922 164.355 28.6308 163.851 28.9482C163.347 29.2655 162.684 29.4242 161.863 29.4242C160.892 29.4242 160.099 29.1628 159.483 28.6402C158.886 28.0988 158.512 27.2868 158.363 26.2042H168.247C168.284 25.9428 168.312 25.6442 168.331 25.3082C168.35 24.9722 168.359 24.6175 168.359 24.2442C168.359 22.9935 168.098 21.8828 167.575 20.9122C167.052 19.9228 166.296 19.1482 165.307 18.5882C164.318 18.0095 163.114 17.7202 161.695 17.7202C160.314 17.7202 159.082 18.0095 157.999 18.5882C156.935 19.1668 156.104 19.9975 155.507 21.0802C154.91 22.1628 154.611 23.4695 154.611 25.0002C154.611 27.2962 155.274 29.0882 156.599 30.3762ZM158.391 23.5443C158.764 21.5469 159.856 20.5483 161.667 20.5483C162.544 20.5483 163.235 20.8096 163.739 21.3323C164.262 21.8363 164.579 22.5736 164.691 23.5443H158.391Z" fill="#212024"/>
<path d="M177.21 32.2802C175.791 32.2802 174.494 32.0282 173.318 31.5242C172.161 31.0202 171.218 30.3108 170.49 29.3962L172.702 27.1562C173.15 27.8282 173.747 28.3788 174.494 28.8082C175.241 29.2375 176.127 29.4522 177.154 29.4522C177.882 29.4522 178.461 29.3495 178.89 29.1442C179.338 28.9202 179.562 28.5748 179.562 28.1082C179.562 27.8095 179.459 27.5575 179.254 27.3522C179.049 27.1282 178.638 26.9508 178.022 26.8202L175.558 26.3162C173.934 25.9802 172.777 25.4762 172.086 24.8042C171.414 24.1135 171.078 23.2268 171.078 22.1442C171.078 21.3788 171.302 20.6602 171.75 19.9882C172.217 19.3162 172.907 18.7748 173.822 18.3642C174.737 17.9348 175.875 17.7202 177.238 17.7202C180.075 17.7202 182.11 18.5882 183.342 20.3242L181.046 22.5642C180.635 21.9108 180.094 21.4162 179.422 21.0802C178.769 20.7255 178.078 20.5482 177.35 20.5482C175.707 20.5482 174.886 21.0055 174.886 21.9202C174.886 22.2188 175.017 22.4802 175.278 22.7042C175.539 22.9095 176.015 23.0868 176.706 23.2362L179.562 23.8242C180.943 24.1042 181.933 24.5802 182.53 25.2522C183.127 25.9055 183.426 26.6988 183.426 27.6322C183.426 28.9762 182.885 30.0868 181.802 30.9642C180.738 31.8415 179.207 32.2802 177.21 32.2802Z" fill="#212024"/>
</g>
</svg>
