<svg width="169" height="48" viewBox="0 0 169 48" fill="none" xmlns="http://www.w3.org/2000/svg">
<g opacity="0.5">
<rect x="0.42627" y="19.2002" width="9.59998" height="9.59999" fill="#212024"/>
<rect x="29.2261" y="28.7998" width="9.6" height="9.59999" transform="rotate(180 29.2261 28.7998)" fill="#212024"/>
<path opacity="0.5" d="M10.0264 19.2001L19.6264 9.6001V19.2001L10.0264 28.8001V19.2001Z" fill="#212024"/>
<path opacity="0.4" d="M19.6264 28.7997L10.0264 38.3997V28.7997L19.6264 19.1997V28.7997Z" fill="#212024"/>
<path opacity="0.6" d="M0.42627 19.2L19.6263 0V9.59999L10.0263 19.2H0.42627Z" fill="#212024"/>
<path opacity="0.6" d="M29.2259 28.7998L10.0259 47.9998V38.3998L19.6259 28.7998H29.2259Z" fill="#212024"/>
<path d="M50.1343 34.2796C48.6223 34.2796 47.1568 34.0649 45.7383 33.6356C44.3383 33.2063 43.2276 32.6369 42.4062 31.9276L43.6662 29.0996C44.4689 29.7343 45.4488 30.2569 46.6062 30.6676C47.7822 31.0596 48.9583 31.2556 50.1343 31.2556C51.5903 31.2556 52.6728 31.0223 53.3822 30.5556C54.1102 30.0889 54.4742 29.4729 54.4742 28.7076C54.4742 28.1476 54.2688 27.6903 53.8582 27.3356C53.4662 26.9623 52.9622 26.6729 52.3462 26.4676C51.7302 26.2623 50.8903 26.0289 49.8263 25.7676C48.3328 25.4129 47.1195 25.0583 46.1862 24.7036C45.2715 24.3489 44.4783 23.7983 43.8062 23.0516C43.1528 22.2863 42.8262 21.2596 42.8262 19.9716C42.8262 18.8889 43.1155 17.9089 43.6942 17.0316C44.2915 16.1356 45.1782 15.4263 46.3542 14.9036C47.5489 14.3809 49.0048 14.1196 50.7222 14.1196C51.9169 14.1196 53.0928 14.2689 54.2502 14.5676C55.4075 14.8663 56.4062 15.2956 57.2463 15.8556L56.0983 18.6836C55.2396 18.1796 54.3435 17.7969 53.4102 17.5356C52.4768 17.2743 51.5716 17.1436 50.6943 17.1436C49.2569 17.1436 48.1835 17.3863 47.4742 17.8716C46.7835 18.3569 46.4383 19.0009 46.4383 19.8036C46.4383 20.3636 46.6342 20.8209 47.0262 21.1756C47.4369 21.5303 47.9502 21.8103 48.5662 22.0156C49.1823 22.2209 50.0223 22.4543 51.0863 22.7156C52.5423 23.0516 53.7368 23.4063 54.6702 23.7796C55.6035 24.1343 56.3968 24.6849 57.0503 25.4316C57.7222 26.1783 58.0583 27.1863 58.0583 28.4556C58.0583 29.5383 57.7595 30.5183 57.1622 31.3956C56.5835 32.2729 55.6968 32.9729 54.5022 33.4956C53.3075 34.0183 51.8516 34.2796 50.1343 34.2796Z" fill="#212024"/>
<path fill-rule="evenodd" clip-rule="evenodd" d="M61.4995 15.9958C61.9289 16.3878 62.4609 16.5838 63.0955 16.5838C63.7489 16.5838 64.2809 16.3785 64.6915 15.9678C65.1209 15.5385 65.3355 15.0158 65.3355 14.3998C65.3355 13.8211 65.1209 13.3451 64.6915 12.9718C64.2622 12.5798 63.7302 12.3838 63.0955 12.3838C62.4609 12.3838 61.9289 12.5891 61.4995 12.9998C61.0702 13.3918 60.8555 13.8865 60.8555 14.4838C60.8555 15.0811 61.0702 15.5851 61.4995 15.9958ZM64.8315 19.0478H61.3315V33.9998H64.8315V19.0478Z" fill="#212024"/>
<path d="M74.0453 34.1959C72.832 34.1959 71.6466 34.0372 70.4893 33.7199C69.332 33.4026 68.408 33.0012 67.7173 32.5159L69.0613 29.8559C69.7333 30.3039 70.536 30.6679 71.4693 30.9479C72.4213 31.2092 73.3546 31.3399 74.2693 31.3399C76.36 31.3399 77.4053 30.7892 77.4053 29.6879C77.4053 29.1652 77.1346 28.8012 76.5933 28.5959C76.0706 28.3906 75.2213 28.1946 74.0453 28.0079C72.8133 27.8212 71.8053 27.6066 71.0213 27.3639C70.256 27.1212 69.584 26.7012 69.0053 26.1039C68.4453 25.4879 68.1653 24.6386 68.1653 23.5559C68.1653 22.1372 68.7533 21.0079 69.9293 20.1679C71.124 19.3092 72.7293 18.8799 74.7453 18.8799C75.772 18.8799 76.7986 19.0012 77.8253 19.2439C78.852 19.4679 79.692 19.7759 80.3453 20.1679L79.0013 22.8279C77.732 22.0812 76.304 21.7079 74.7173 21.7079C73.6906 21.7079 72.9066 21.8666 72.3653 22.1839C71.8426 22.4826 71.5813 22.8839 71.5813 23.3879C71.5813 23.9479 71.8613 24.3492 72.4213 24.5919C73 24.8159 73.8866 25.0306 75.0813 25.2359C76.276 25.4226 77.256 25.6372 78.0213 25.8799C78.7866 26.1226 79.44 26.5332 79.9813 27.1119C80.5413 27.6906 80.8213 28.5119 80.8213 29.5759C80.8213 30.9759 80.2146 32.0959 79.0013 32.9359C77.788 33.7759 76.136 34.1959 74.0453 34.1959Z" fill="#212024"/>
<path d="M97.562 19.0479L90.562 35.2039C89.9087 36.8279 89.1153 37.9666 88.182 38.6199C87.2487 39.2919 86.1193 39.6279 84.794 39.6279C84.0473 39.6279 83.31 39.5066 82.582 39.2639C81.854 39.0212 81.2567 38.6852 80.79 38.2559L82.19 35.6799C82.526 35.9972 82.918 36.2492 83.366 36.4359C83.8327 36.6226 84.2993 36.7159 84.766 36.7159C85.382 36.7159 85.886 36.5572 86.278 36.2399C86.6887 35.9226 87.062 35.3906 87.398 34.6439L87.65 34.0559L81.126 19.0479H84.766L89.47 30.1079L94.202 19.0479H97.562Z" fill="#212024"/>
<path fill-rule="evenodd" clip-rule="evenodd" d="M111.93 19.8319C110.792 19.1972 109.494 18.8799 108.038 18.8799C107.012 18.8799 106.069 19.0572 105.21 19.4119C104.37 19.7666 103.661 20.2986 103.082 21.0079V19.0479H99.7495V39.4319H103.25V32.1799C104.426 33.5239 106.022 34.1959 108.038 34.1959C109.494 34.1959 110.792 33.8786 111.93 33.2439C113.088 32.6092 113.993 31.7132 114.646 30.5559C115.3 29.3799 115.626 28.0359 115.626 26.5239C115.626 25.0119 115.3 23.6772 114.646 22.5199C113.993 21.3626 113.088 20.4666 111.93 19.8319ZM110.809 29.9117C109.988 30.7704 108.933 31.1997 107.645 31.1997C106.805 31.1997 106.049 31.013 105.377 30.6397C104.705 30.2477 104.173 29.697 103.781 28.9877C103.389 28.2784 103.193 27.457 103.193 26.5237C103.193 25.5904 103.389 24.769 103.781 24.0597C104.173 23.3504 104.705 22.809 105.377 22.4357C106.049 22.0437 106.805 21.8477 107.645 21.8477C108.933 21.8477 109.988 22.277 110.809 23.1357C111.649 23.9944 112.069 25.1237 112.069 26.5237C112.069 27.9237 111.649 29.053 110.809 29.9117Z" fill="#212024"/>
<path d="M127.429 18.8796C129.314 18.8796 130.826 19.4303 131.965 20.5316C133.103 21.6329 133.673 23.2663 133.673 25.4316V33.9996H130.173V25.8796C130.173 24.5729 129.865 23.5929 129.249 22.9396C128.633 22.2676 127.755 21.9316 126.617 21.9316C125.329 21.9316 124.311 22.3236 123.565 23.1076C122.818 23.8729 122.445 24.9836 122.445 26.4396V33.9996H118.945V13.2236H122.445V20.7836C123.023 20.1676 123.733 19.7009 124.573 19.3836C125.431 19.0476 126.383 18.8796 127.429 18.8796Z" fill="#212024"/>
<path d="M152.589 19.0479V33.9999H149.257V32.0959C148.697 32.7679 147.997 33.2906 147.157 33.6639C146.317 34.0186 145.411 34.1959 144.441 34.1959C142.443 34.1959 140.866 33.6452 139.709 32.5439C138.57 31.4239 138.001 29.7719 138.001 27.5879V19.0479H141.501V27.1119C141.501 28.4559 141.799 29.4639 142.397 30.1359C143.013 30.7892 143.881 31.1159 145.001 31.1159C146.251 31.1159 147.241 30.7332 147.969 29.9679C148.715 29.1839 149.089 28.0639 149.089 26.6079V19.0479H152.589Z" fill="#212024"/>
<path d="M161.791 34.1959C160.578 34.1959 159.392 34.0372 158.235 33.7199C157.078 33.4026 156.154 33.0012 155.463 32.5159L156.807 29.8559C157.479 30.3039 158.282 30.6679 159.215 30.9479C160.167 31.2092 161.1 31.3399 162.015 31.3399C164.106 31.3399 165.151 30.7892 165.151 29.6879C165.151 29.1652 164.88 28.8012 164.339 28.5959C163.816 28.3906 162.967 28.1946 161.791 28.0079C160.559 27.8212 159.551 27.6066 158.767 27.3639C158.002 27.1212 157.33 26.7012 156.751 26.1039C156.191 25.4879 155.911 24.6386 155.911 23.5559C155.911 22.1372 156.499 21.0079 157.675 20.1679C158.87 19.3092 160.475 18.8799 162.491 18.8799C163.518 18.8799 164.544 19.0012 165.571 19.2439C166.598 19.4679 167.438 19.7759 168.091 20.1679L166.747 22.8279C165.478 22.0812 164.05 21.7079 162.463 21.7079C161.436 21.7079 160.652 21.8666 160.111 22.1839C159.588 22.4826 159.327 22.8839 159.327 23.3879C159.327 23.9479 159.607 24.3492 160.167 24.5919C160.746 24.8159 161.632 25.0306 162.827 25.2359C164.022 25.4226 165.002 25.6372 165.767 25.8799C166.532 26.1226 167.186 26.5332 167.727 27.1119C168.287 27.6906 168.567 28.5119 168.567 29.5759C168.567 30.9759 167.96 32.0959 166.747 32.9359C165.534 33.7759 163.882 34.1959 161.791 34.1959Z" fill="#212024"/>
</g>
</svg>
