<svg width="188" height="44" viewBox="0 0 188 44" fill="none" xmlns="http://www.w3.org/2000/svg">
<g opacity="0.5">
<path fill-rule="evenodd" clip-rule="evenodd" d="M22.5673 34.4666C29.4524 34.4666 35.034 28.885 35.034 21.9999C35.034 15.1148 29.4524 9.5332 22.5673 9.5332C15.6821 9.5332 10.1006 15.1148 10.1006 21.9999C10.1006 28.885 15.6821 34.4666 22.5673 34.4666ZM22.5674 44C34.7177 44 44.5674 34.1503 44.5674 22C44.5674 9.8497 34.7177 0 22.5674 0C10.4171 0 0.567383 9.8497 0.567383 22C0.567383 34.1503 10.4171 44 22.5674 44Z" fill="#212024"/>
<path opacity="0.6" d="M22.8188 22.482C25.1099 20.1909 28.8245 20.1909 31.1156 22.482L42.5235 33.8899C44.8146 36.181 44.8146 39.8956 42.5235 42.1867C40.2325 44.4777 36.5179 44.4777 34.2268 42.1867L22.8188 30.7787C20.5278 28.4876 20.5278 24.773 22.8188 22.482Z" fill="#212024"/>
<path d="M26.0225 33.9816L33.2678 41.2269C36.743 39.2887 39.6383 36.4357 41.6279 32.9936L34.442 25.8076C33.1798 29.747 30.0115 32.8334 26.0225 33.9816Z" fill="#212024"/>
<path fill-rule="evenodd" clip-rule="evenodd" d="M77.7632 35.892C78.6779 35.4813 79.4525 34.884 80.0872 34.1L78.0712 31.692C77.1565 32.6626 76.0925 33.148 74.8792 33.148C74.3752 33.148 73.8992 33.036 73.4512 32.812C73.0219 32.6066 72.5739 32.2613 72.1072 31.776C74.2165 31.104 75.9059 29.9093 77.1752 28.192C78.4632 26.4746 79.1072 24.4773 79.1072 22.2C79.1072 20.2773 78.6405 18.5506 77.7072 17.02C76.7739 15.4706 75.4952 14.2573 73.8712 13.38C72.2472 12.5026 70.4179 12.064 68.3832 12.064C66.3485 12.064 64.5099 12.5026 62.8672 13.38C61.2432 14.2573 59.9645 15.4706 59.0312 17.02C58.1165 18.5506 57.6592 20.2773 57.6592 22.2C57.6592 23.9546 58.0419 25.56 58.8072 27.016C59.5912 28.4533 60.6739 29.6293 62.0552 30.544C63.4552 31.4586 65.0419 32.028 66.8152 32.252C68.3272 33.8386 69.6712 34.94 70.8472 35.556C72.0232 36.1906 73.3392 36.508 74.7952 36.508C75.8779 36.508 76.8672 36.3026 77.7632 35.892ZM63.035 25.4477C62.5123 24.4957 62.251 23.413 62.251 22.1997C62.251 20.9863 62.5123 19.9037 63.035 18.9517C63.5763 17.9997 64.3137 17.2623 65.247 16.7397C66.1803 16.1983 67.2257 15.9277 68.383 15.9277C69.5403 15.9277 70.5857 16.1983 71.519 16.7397C72.4523 17.2623 73.1803 17.9997 73.703 18.9517C74.2443 19.9037 74.515 20.9863 74.515 22.1997C74.515 23.413 74.2443 24.4957 73.703 25.4477C73.1803 26.3997 72.4523 27.1463 71.519 27.6877C70.5857 28.2103 69.5403 28.4717 68.383 28.4717C67.2257 28.4717 66.1803 28.2103 65.247 27.6877C64.3137 27.1463 63.5763 26.3997 63.035 25.4477Z" fill="#212024"/>
<path d="M97.384 16.936V32H93.24V30.208C92.6613 30.8613 91.9707 31.3653 91.168 31.72C90.3653 32.056 89.4973 32.224 88.564 32.224C86.5853 32.224 85.0173 31.6546 83.86 30.516C82.7027 29.3773 82.124 27.688 82.124 25.448V16.936H86.492V24.804C86.492 27.2306 87.5093 28.444 89.544 28.444C90.5893 28.444 91.4293 28.108 92.064 27.436C92.6987 26.7453 93.016 25.728 93.016 24.384V16.936H97.384Z" fill="#212024"/>
<path fill-rule="evenodd" clip-rule="evenodd" d="M104.315 31.2439C105.585 31.8972 107.013 32.2239 108.599 32.2239C110.186 32.2239 111.605 31.8972 112.855 31.2439C114.106 30.5719 115.086 29.6479 115.795 28.4719C116.505 27.2959 116.859 25.9612 116.859 24.4679C116.859 22.9745 116.505 21.6399 115.795 20.4639C115.086 19.2879 114.106 18.3732 112.855 17.7199C111.605 17.0479 110.186 16.7119 108.599 16.7119C107.013 16.7119 105.585 17.0479 104.315 17.7199C103.065 18.3732 102.085 19.2879 101.375 20.4639C100.666 21.6399 100.311 22.9745 100.311 24.4679C100.311 25.9612 100.666 27.2959 101.375 28.4719C102.085 29.6479 103.065 30.5719 104.315 31.2439ZM111.342 27.5199C110.633 28.2665 109.718 28.6399 108.598 28.6399C107.478 28.6399 106.554 28.2665 105.826 27.5199C105.098 26.7545 104.734 25.7372 104.734 24.4679C104.734 23.1985 105.098 22.1905 105.826 21.4439C106.554 20.6785 107.478 20.2959 108.598 20.2959C109.718 20.2959 110.633 20.6785 111.342 21.4439C112.07 22.1905 112.434 23.1985 112.434 24.4679C112.434 25.7372 112.07 26.7545 111.342 27.5199Z" fill="#212024"/>
<path d="M129.494 31.272C129.065 31.5893 128.533 31.832 127.898 32C127.282 32.1493 126.629 32.224 125.938 32.224C124.146 32.224 122.755 31.7666 121.766 30.852C120.795 29.9373 120.31 28.5933 120.31 26.82V20.632H117.986V17.272H120.31V13.604H124.678V17.272H128.43V20.632H124.678V26.764C124.678 27.3986 124.837 27.8933 125.154 28.248C125.49 28.584 125.957 28.752 126.554 28.752C127.245 28.752 127.833 28.5653 128.318 28.192L129.494 31.272Z" fill="#212024"/>
<path fill-rule="evenodd" clip-rule="evenodd" d="M132.171 14.1359C132.675 14.6025 133.328 14.8359 134.131 14.8359C134.934 14.8359 135.587 14.6025 136.091 14.1359C136.595 13.6505 136.847 13.0439 136.847 12.3159C136.847 11.6439 136.595 11.0839 136.091 10.6359C135.587 10.1879 134.934 9.96387 134.131 9.96387C133.328 9.96387 132.675 10.1972 132.171 10.6639C131.667 11.1305 131.415 11.7092 131.415 12.3999C131.415 13.0905 131.667 13.6692 132.171 14.1359ZM136.315 16.936H131.947V32H136.315V16.936Z" fill="#212024"/>
<path fill-rule="evenodd" clip-rule="evenodd" d="M155.041 25.6999C155.097 24.9719 155.125 24.5799 155.125 24.5239C155.125 22.9559 154.78 21.5839 154.089 20.4079C153.417 19.2132 152.484 18.2985 151.289 17.6639C150.094 17.0292 148.76 16.7119 147.285 16.7119C145.773 16.7119 144.401 17.0479 143.169 17.7199C141.956 18.3732 140.994 19.2972 140.285 20.4919C139.594 21.6679 139.249 22.9932 139.249 24.4679C139.249 25.9612 139.604 27.2959 140.313 28.4719C141.022 29.6479 142.03 30.5719 143.337 31.2439C144.644 31.8972 146.146 32.2239 147.845 32.2239C150.57 32.2239 152.642 31.4119 154.061 29.7879L151.737 27.2679C151.214 27.7719 150.645 28.1452 150.029 28.3879C149.432 28.6119 148.741 28.7239 147.957 28.7239C146.818 28.7239 145.866 28.4532 145.101 27.9119C144.336 27.3705 143.85 26.6332 143.645 25.6999H155.041ZM144.82 20.8561C145.492 20.2961 146.323 20.0161 147.312 20.0161C148.283 20.0161 149.104 20.3054 149.776 20.8841C150.448 21.4441 150.859 22.2001 151.008 23.1521H143.588C143.737 22.1814 144.148 21.4161 144.82 20.8561Z" fill="#212024"/>
<path d="M167.188 16.7119C169.055 16.7119 170.557 17.2719 171.696 18.3919C172.853 19.5119 173.432 21.1732 173.432 23.3759V31.9999H169.064V24.0479C169.064 22.8532 168.803 21.9665 168.28 21.3879C167.757 20.7905 167.001 20.4919 166.012 20.4919C164.911 20.4919 164.033 20.8372 163.38 21.5279C162.727 22.1999 162.4 23.2079 162.4 24.5519V31.9999H158.032V16.9359H162.204V18.6999C162.783 18.0652 163.501 17.5799 164.36 17.2439C165.219 16.8892 166.161 16.7119 167.188 16.7119Z" fill="#212024"/>
<path d="M187.108 31.272C186.679 31.5893 186.147 31.832 185.512 32C184.896 32.1493 184.243 32.224 183.552 32.224C181.76 32.224 180.37 31.7666 179.38 30.852C178.41 29.9373 177.924 28.5933 177.924 26.82V20.632H175.6V17.272H177.924V13.604H182.292V17.272H186.044V20.632H182.292V26.764C182.292 27.3986 182.451 27.8933 182.768 28.248C183.104 28.584 183.571 28.752 184.168 28.752C184.859 28.752 185.447 28.5653 185.932 28.192L187.108 31.272Z" fill="#212024"/>
</g>
</svg>
