<svg width="146" height="44" viewBox="0 0 146 44" fill="none" xmlns="http://www.w3.org/2000/svg">
<g opacity="0.5">
<path opacity="0.6" d="M13.8852 20.0372C14.7074 16.9689 17.8613 13.815 20.9296 12.9928L40.0586 7.86642C43.1268 7.04414 44.9476 8.86492 44.1253 11.9331L38.999 31.0621C38.1767 34.1304 35.0228 37.2843 31.9545 38.1066L12.8255 43.2329C9.75723 44.0552 7.93648 42.2344 8.75874 39.1662L13.8852 20.0372Z" fill="#212024"/>
<path d="M6.21617 12.3682C7.03843 9.30002 10.1923 6.14609 13.2607 5.32383L32.3896 0.197465C35.4579 -0.624795 37.2787 1.19594 36.4564 4.26421L31.33 23.3932C30.5078 26.4614 27.3539 29.6153 24.2856 30.4376L5.15655 35.564C2.08828 36.3862 0.267536 34.5655 1.0898 31.4972L6.21617 12.3682Z" fill="#212024"/>
<path d="M61.8993 29.1428H68.4793V31.7188H58.7073V12.2588H61.8993V29.1428Z" fill="#212024"/>
<path fill-rule="evenodd" clip-rule="evenodd" d="M71.0367 19.8191C70.402 21.0138 70.0847 22.3858 70.0847 23.9351C70.0847 25.4845 70.402 26.8751 71.0367 28.1071C71.69 29.3205 72.5674 30.2725 73.6687 30.9631C74.77 31.6351 75.9834 31.9711 77.3087 31.9711C78.5034 31.9711 79.5674 31.7285 80.5007 31.2431C81.434 30.7578 82.1714 30.1511 82.7127 29.4231V31.7191H85.9327V16.2911H82.7127V18.5311C82.1714 17.8218 81.4434 17.2338 80.5287 16.7671C79.6327 16.2818 78.578 16.0391 77.3647 16.0391C76.0207 16.0391 74.7887 16.3751 73.6687 17.0471C72.5674 17.7005 71.69 18.6245 71.0367 19.8191ZM82.0406 21.219C82.4886 22.003 82.7126 22.927 82.7126 23.991C82.7126 25.055 82.4886 25.9884 82.0406 26.791C81.6113 27.575 81.0419 28.1724 80.3326 28.583C79.6233 28.9937 78.8579 29.199 78.0366 29.199C77.2339 29.199 76.4686 28.9937 75.7406 28.583C75.0313 28.1537 74.4526 27.5377 74.0046 26.735C73.5753 25.9324 73.3606 24.999 73.3606 23.935C73.3606 22.871 73.5753 21.9564 74.0046 21.191C74.4526 20.407 75.0313 19.819 75.7406 19.427C76.4499 19.0164 77.2153 18.811 78.0366 18.811C78.8579 18.811 79.6233 19.0164 80.3326 19.427C81.0419 19.8377 81.6113 20.435 82.0406 21.219Z" fill="#212024"/>
<path d="M104.013 16.291L94.5494 38.971H91.2454L94.3814 31.467L88.3054 16.291H91.8614L96.2014 28.051L100.709 16.291H104.013Z" fill="#212024"/>
<path fill-rule="evenodd" clip-rule="evenodd" d="M120.45 25.1951C120.525 24.7285 120.562 24.2058 120.562 23.6271C120.562 22.1338 120.245 20.8178 119.61 19.6791C118.975 18.5218 118.089 17.6258 116.95 16.9911C115.811 16.3565 114.514 16.0391 113.058 16.0391C111.546 16.0391 110.202 16.3658 109.026 17.0191C107.869 17.6725 106.963 18.6058 106.31 19.8191C105.675 21.0138 105.358 22.4045 105.358 23.9911C105.358 25.5778 105.685 26.9778 106.338 28.1911C107.01 29.3858 107.925 30.3191 109.082 30.9911C110.258 31.6445 111.583 31.9711 113.058 31.9711C114.869 31.9711 116.381 31.5231 117.594 30.6271C118.826 29.7125 119.675 28.5458 120.142 27.1271H116.698C115.989 28.5645 114.775 29.2831 113.058 29.2831C111.863 29.2831 110.855 28.9098 110.034 28.1631C109.213 27.4165 108.755 26.4271 108.662 25.1951H120.45ZM115.97 19.7911C116.791 20.5005 117.211 21.4431 117.23 22.6191H108.69C108.839 21.4245 109.306 20.4818 110.09 19.7911C110.874 19.0818 111.817 18.7271 112.918 18.7271C114.131 18.7271 115.149 19.0818 115.97 19.7911Z" fill="#212024"/>
<path d="M126.895 18.5311C127.362 17.7471 127.978 17.1405 128.743 16.7111C129.527 16.2631 130.451 16.0391 131.515 16.0391V19.3431H130.703C129.453 19.3431 128.501 19.6605 127.847 20.2951C127.213 20.9298 126.895 22.0311 126.895 23.5991V31.7191H123.703V16.2911H126.895V18.5311Z" fill="#212024"/>
<path d="M140.049 31.9711C138.836 31.9711 137.744 31.7565 136.773 31.3271C135.821 30.8791 135.065 30.2818 134.505 29.5351C133.945 28.7698 133.647 27.9205 133.609 26.9871H136.913C136.969 27.6405 137.277 28.1911 137.837 28.6391C138.416 29.0685 139.135 29.2831 139.993 29.2831C140.889 29.2831 141.58 29.1151 142.065 28.7791C142.569 28.4245 142.821 27.9765 142.821 27.4351C142.821 26.8565 142.541 26.4271 141.981 26.1471C141.44 25.8671 140.572 25.5591 139.377 25.2231C138.22 24.9058 137.277 24.5978 136.549 24.2991C135.821 24.0005 135.187 23.5431 134.645 22.9271C134.123 22.3111 133.861 21.4991 133.861 20.4911C133.861 19.6698 134.104 18.9231 134.589 18.2511C135.075 17.5605 135.765 17.0191 136.661 16.6271C137.576 16.2351 138.621 16.0391 139.797 16.0391C141.552 16.0391 142.961 16.4871 144.025 17.3831C145.108 18.2605 145.687 19.4645 145.761 20.9951H142.569C142.513 20.3045 142.233 19.7538 141.729 19.3431C141.225 18.9325 140.544 18.7271 139.685 18.7271C138.845 18.7271 138.201 18.8858 137.753 19.2031C137.305 19.5205 137.081 19.9405 137.081 20.4631C137.081 20.8738 137.231 21.2191 137.529 21.4991C137.828 21.7791 138.192 22.0031 138.621 22.1711C139.051 22.3205 139.685 22.5165 140.525 22.7591C141.645 23.0578 142.56 23.3658 143.269 23.6831C143.997 23.9818 144.623 24.4298 145.145 25.0271C145.668 25.6245 145.939 26.4178 145.957 27.4071C145.957 28.2845 145.715 29.0685 145.229 29.7591C144.744 30.4498 144.053 30.9911 143.157 31.3831C142.28 31.7751 141.244 31.9711 140.049 31.9711Z" fill="#212024"/>
</g>
</svg>
