<svg width="161" height="44" viewBox="0 0 161 44" fill="none" xmlns="http://www.w3.org/2000/svg">
<g opacity="0.5">
<path opacity="0.6" d="M22.957 0C10.8067 0 0.957031 9.8497 0.957031 22C0.957031 34.1503 10.8067 44 22.957 44C33.858 44 42.9072 36.0716 44.6528 25.6667H44.4949C42.8668 31.9925 37.1244 36.6667 30.2903 36.6667C22.1902 36.6667 15.6237 30.1002 15.6237 22C15.6237 13.8998 22.1902 7.33333 30.2903 7.33333C37.1244 7.33333 42.8668 12.0075 44.4949 18.3333H44.6528C42.9072 7.92838 33.858 0 22.957 0Z" fill="#212024"/>
<path d="M0.957031 22C0.957031 9.8497 10.8067 0 22.957 0C33.858 0 42.9072 7.92838 44.6528 18.3333H29.8283C28.2001 12.0075 22.4577 7.33333 15.6237 7.33333C7.52352 7.33333 0.957031 13.8998 0.957031 22Z" fill="#212024"/>
<path d="M0.957031 22C0.957031 34.1503 10.8067 44 22.957 44C33.858 44 42.9072 36.0716 44.6528 25.6667H29.8283C28.2001 31.9925 22.4577 36.6667 15.6237 36.6667C7.52352 36.6667 0.957031 30.1002 0.957031 22Z" fill="#212024"/>
<path d="M76.3961 18.5071C75.7697 13.9829 72.2896 11.3579 67.7754 11.3579C62.4558 11.3579 58.4487 15.2358 58.4487 21.8181C58.4487 28.3906 62.4061 32.2784 67.7754 32.2784C72.6177 32.2784 75.8294 29.1463 76.3961 25.2585L72.6774 25.2386C72.2101 27.625 70.2612 28.9673 67.8251 28.9673C64.524 28.9673 62.1575 26.4914 62.1575 21.8181C62.1575 17.2244 64.5041 14.669 67.8351 14.669C70.3109 14.669 72.2498 16.071 72.6774 18.5071H76.3961Z" fill="#212024"/>
<path fill-rule="evenodd" clip-rule="evenodd" d="M88.4946 29.9018C87.8383 31.1845 86.4065 32.3081 84.0102 32.3081C81.0969 32.3081 78.8994 30.7172 78.8994 27.7143C78.8994 24.274 81.7332 23.3891 84.6963 23.0709C84.8549 23.0539 85.0079 23.0378 85.1555 23.0222C87.5147 22.7733 88.4747 22.672 88.4747 21.6987V21.6391C88.4747 20.1376 87.5599 19.2825 85.8895 19.2825C84.1295 19.2825 83.1153 20.1774 82.7574 21.2214L79.3966 20.7442C80.192 17.9601 82.658 16.5283 85.8696 16.5283C88.783 16.5283 92.0741 17.7413 92.0741 21.7783V31.9999H88.6139V29.9018H88.4946ZM82.3696 27.6545C82.3696 28.9769 83.4435 29.663 84.9449 29.663C87.1125 29.663 88.4847 28.2212 88.4847 26.521V24.7212C88.0426 25.0787 86.328 25.3115 85.3445 25.4451C85.2883 25.4527 85.2345 25.46 85.1835 25.467C83.5727 25.6957 82.3696 26.2724 82.3696 27.6545Z" fill="#212024"/>
<path d="M103.32 16.727H100.307V13.0679H96.7076V16.727H94.54V19.5111H96.7076V28.0026C96.6877 30.8762 98.7757 32.2881 101.48 32.2086C102.504 32.1787 103.21 31.9799 103.598 31.8506L102.992 29.0367C102.793 29.0864 102.385 29.1759 101.938 29.1759C101.033 29.1759 100.307 28.8577 100.307 27.406V19.5111H103.32V16.727Z" fill="#212024"/>
<path fill-rule="evenodd" clip-rule="evenodd" d="M115.209 29.9018C114.553 31.1845 113.121 32.3081 110.725 32.3081C107.812 32.3081 105.614 30.7172 105.614 27.7143C105.614 24.274 108.448 23.3891 111.411 23.0709C111.57 23.054 111.722 23.0378 111.87 23.0223C114.23 22.7733 115.189 22.672 115.189 21.6987V21.6391C115.189 20.1376 114.275 19.2825 112.604 19.2825C110.844 19.2825 109.83 20.1774 109.472 21.2214L106.111 20.7442C106.907 17.9601 109.373 16.5283 112.584 16.5283C115.498 16.5283 118.789 17.7413 118.789 21.7783V31.9999H115.329V29.9018H115.209ZM109.084 27.6545C109.084 28.9769 110.158 29.663 111.66 29.663C113.827 29.663 115.199 28.2212 115.199 26.521V24.7212C114.758 25.0788 113.042 25.3117 112.058 25.4452C112.003 25.4528 111.949 25.4601 111.898 25.467C110.287 25.6957 109.084 26.2724 109.084 27.6545Z" fill="#212024"/>
<path d="M126.008 11.6362H122.408V31.9999H126.008V11.6362Z" fill="#212024"/>
<path fill-rule="evenodd" clip-rule="evenodd" d="M143.689 24.4232C143.689 29.1462 140.845 32.2982 136.371 32.2982C131.896 32.2982 129.053 29.1462 129.053 24.4232C129.053 19.6902 131.896 16.5283 136.371 16.5283C140.845 16.5283 143.689 19.6902 143.689 24.4232ZM132.702 24.413C132.702 27.207 133.915 29.4144 136.391 29.4144C138.827 29.4144 140.04 27.207 140.04 24.413C140.04 21.619 138.827 19.3818 136.391 19.3818C133.915 19.3818 132.702 21.619 132.702 24.413Z" fill="#212024"/>
<path fill-rule="evenodd" clip-rule="evenodd" d="M160.555 32.2484C160.555 36.1561 157.513 38.0453 153.386 38.0453C149.498 38.0453 147.301 36.3251 146.645 34.1874L149.886 33.4018C150.324 34.2967 151.278 35.3209 153.446 35.3209C155.494 35.3209 156.986 34.3962 156.986 32.149V29.2555H156.807C156.25 30.3791 155.027 31.7811 152.412 31.7811C148.892 31.7811 146.118 29.2953 146.118 24.3138C146.118 19.2925 148.892 16.5283 152.422 16.5283C155.116 16.5283 156.26 18.149 156.807 19.2527H157.005V16.7271H160.555V32.2484ZM149.787 24.2939C149.787 27.1078 151.04 28.9572 153.416 28.9572C155.713 28.9572 157.005 27.2072 157.005 24.2939C157.005 21.4004 155.733 19.4814 153.416 19.4814C151.02 19.4814 149.787 21.5197 149.787 24.2939Z" fill="#212024"/>
</g>
</svg>
