<svg width="48" height="48" viewBox="0 0 48 48" fill="none" xmlns="http://www.w3.org/2000/svg">
<g clip-path="url(#clip0_139_3550)">
<circle cx="24" cy="24" r="24" fill="#8D9BDE"/>
<path d="M22.8688 28.7063L4.38276 21.3927C4.05535 21.2632 4.05535 20.7998 4.38276 20.6703L22.8688 13.3567C22.9592 13.321 23.0596 13.3204 23.1504 13.355L42.298 20.6686C42.6311 20.7959 42.6311 21.2672 42.298 21.3944L23.1504 28.708C23.0596 28.7426 22.9592 28.742 22.8688 28.7063Z" fill="#304091"/>
<path d="M11.084 25.7181V32.2254C11.084 32.3656 11.1609 32.4959 11.2836 32.5636C20.7071 37.7627 30.7274 34.8007 34.782 32.5605C34.9038 32.4932 34.9743 32.3664 34.9743 32.2272V25.7174C34.9743 25.4441 34.6995 25.2562 34.4448 25.3555L23.151 29.7557C23.0601 29.791 22.9593 29.791 22.8685 29.7555L11.6139 25.3563C11.3591 25.2567 11.084 25.4446 11.084 25.7181Z" fill="#304091"/>
<path d="M40.6726 31.1151C41.0879 28.3297 41.7911 23.6444 41.992 22.4146C42.0207 22.2386 42.1688 22.1193 42.347 22.1193H42.6463C42.8365 22.1193 42.9987 22.257 43.0296 22.4446L44.4556 31.1073C44.4945 31.3438 44.312 31.5588 44.0723 31.5588H41.057C40.8197 31.5588 40.6376 31.3499 40.6726 31.1151Z" fill="#304091"/>
</g>
<defs>
<clipPath id="clip0_139_3550">
<rect width="48" height="48" fill="white"/>
</clipPath>
</defs>
</svg>
