<svg width="107" height="107" viewBox="0 0 107 107" fill="none" xmlns="http://www.w3.org/2000/svg">
<rect width="107" height="106.346" rx="53.1732" fill="white"/>
<path d="M58.5935 44.5005C60.5449 42.9828 61.8458 40.5978 61.8458 37.8875C61.8458 33.3344 58.16 29.6484 53.4984 29.6484C48.9452 29.6484 45.1508 33.3344 45.1508 37.8875C45.1508 40.5978 46.4517 42.9828 48.4031 44.5005C44.0667 46.4519 40.9229 50.7882 40.9229 55.8835V66.9412C40.9229 67.7001 41.5733 68.3505 42.3322 68.3505H46.4518V84.9371C46.4518 85.696 47.1022 86.3465 47.8611 86.3465C48.6199 86.3465 49.2704 85.696 49.2704 84.9371V62.7132C49.2704 61.9544 48.6199 61.3039 47.8611 61.3039C47.1022 61.3039 46.4518 61.9544 46.4518 62.7132V65.5319H43.7415V55.7751C43.7415 50.463 48.0779 46.1266 53.4984 46.1266C58.9188 46.1266 63.2552 50.463 63.2552 55.7751V65.5319H60.6533V62.8217C60.6533 62.0628 60.0029 61.4123 59.244 61.4123C58.4852 61.4123 57.8347 62.0628 57.8347 62.8217V84.9371C57.8347 85.696 58.4852 86.3465 59.244 86.3465C60.0029 86.3465 60.6533 85.696 60.6533 84.9371V68.2421H64.7729C65.5317 68.2421 66.1822 67.5917 66.1822 66.8328V55.7751C66.0738 50.7882 63.0383 46.3435 58.5935 44.5005ZM47.9694 37.8875C47.9694 34.8521 50.4629 32.3587 53.6067 32.3587C56.6422 32.3587 59.244 34.8521 59.244 37.8875C59.244 40.923 56.7506 43.4164 53.6067 43.4164C50.4629 43.4164 47.9694 40.923 47.9694 37.8875Z" fill="#304091"/>
<path d="M53.4982 72.3618C52.7394 72.3618 52.0889 73.0123 52.0889 73.7712V84.8289C52.0889 85.5877 52.7394 86.2382 53.4982 86.2382C54.2571 86.2382 54.9075 85.5877 54.9075 84.8289V73.7712C54.9075 73.0123 54.2571 72.3618 53.4982 72.3618Z" fill="#304091"/>
<path d="M38.2131 36.4782C42.7663 36.4782 46.5606 32.7923 46.5606 28.2391C46.5606 23.6859 42.8747 20 38.2131 20C33.6599 20 29.8655 23.6859 29.8655 28.2391C29.7571 32.7923 33.5515 36.4782 38.2131 36.4782ZM38.2131 22.7102C41.2485 22.7102 43.8504 25.2036 43.8504 28.2391C43.8504 31.2746 41.3569 33.768 38.2131 33.768C35.1776 33.768 32.5758 31.2746 32.5758 28.2391C32.5758 25.2036 35.0692 22.7102 38.2131 22.7102Z" fill="#304091"/>
<path d="M68.8924 36.4782C73.4456 36.4782 77.2399 32.7923 77.2399 28.2391C77.2399 23.6859 73.554 20 68.8924 20C64.3392 20 60.5449 23.6859 60.5449 28.2391C60.5449 32.7923 64.2308 36.4782 68.8924 36.4782ZM68.8924 22.7102C71.9278 22.7102 74.5297 25.2036 74.5297 28.2391C74.5297 31.2746 72.0362 33.768 68.8924 33.768C65.8569 33.768 63.2552 31.2746 63.2552 28.2391C63.2552 25.2036 65.7485 22.7102 68.8924 22.7102Z" fill="#304091"/>
<path d="M36.0441 64.1226C35.2852 64.1226 34.6348 64.773 34.6348 65.5319V84.8287C34.6348 85.5876 35.2852 86.238 36.0441 86.238C36.8029 86.238 37.4534 85.5876 37.4534 84.8287V65.5319C37.345 64.773 36.8029 64.1226 36.0441 64.1226Z" fill="#304091"/>
<path d="M31.1661 73.771C30.4073 73.771 29.7568 74.4214 29.7568 75.1803V84.8287C29.7568 85.5876 30.4073 86.2381 31.1661 86.2381C31.925 86.2381 32.5754 85.5876 32.5754 84.8287V75.1803C32.5754 74.4214 31.925 73.771 31.1661 73.771Z" fill="#304091"/>
<path d="M31.1661 36.2612C27.0466 36.2612 23.6859 39.6219 23.6859 43.7415C23.6859 46.0181 24.77 48.0778 26.3962 49.4872C22.7103 51.2217 20 55.1244 20 59.4608V69.1092C20 69.8681 20.6504 70.5185 21.4093 70.5185H24.8784V84.8285C24.8784 85.5874 25.5289 86.2379 26.2877 86.2379C27.0466 86.2379 27.697 85.5874 27.697 84.8285V65.5317C27.697 64.7728 27.0466 64.1224 26.2877 64.1224C25.5289 64.1224 24.8784 64.7728 24.8784 65.5317V67.6999H22.8186V59.4608C22.8186 54.9076 26.5045 51.2217 31.1661 51.2217C35.2857 51.2217 38.7548 47.861 38.7548 43.8499C38.7548 39.6219 35.2857 36.2612 31.1661 36.2612ZM31.1661 48.4031C28.5643 48.4031 26.5046 46.3433 26.5046 43.7415C26.5046 41.1396 28.5643 39.0799 31.1661 39.0799C33.768 39.0799 35.8277 41.1396 35.8277 43.7415C35.8277 46.3433 33.768 48.4031 31.1661 48.4031Z" fill="#304091"/>
<path d="M80.6009 49.4874C82.227 48.0781 83.3111 46.0183 83.3111 43.7417C83.3111 39.6221 79.9504 36.3699 75.8308 36.3699C71.7113 36.3699 68.3506 39.7305 68.3506 43.7417C68.3506 47.8612 71.7113 51.1135 75.8308 51.1135C80.384 51.1135 84.1784 54.7994 84.1784 59.3526V67.7001H82.1186V65.5319C82.1186 64.7731 81.4681 64.1226 80.7093 64.1226C79.9504 64.1226 79.3 64.7731 79.3 65.5319V84.8288C79.3 85.5876 79.9504 86.2381 80.7093 86.2381C81.4681 86.2381 82.1186 85.5876 82.1186 84.8288V70.5188H85.5877C86.3465 70.5188 86.997 69.8683 86.997 69.1094V59.461C87.1054 55.0162 84.3952 51.2219 80.6009 49.4874ZM71.1693 43.7417C71.1693 41.1399 73.229 39.0801 75.8308 39.0801C78.4327 39.0801 80.6009 41.1399 80.6009 43.7417C80.6009 46.3435 78.5411 48.4033 75.8308 48.4033C73.229 48.4033 71.1693 46.3435 71.1693 43.7417Z" fill="#304091"/>
<path d="M70.9523 64.1226C70.1934 64.1226 69.543 64.773 69.543 65.5319V84.8287C69.543 85.5876 70.1934 86.238 70.9523 86.238C71.7111 86.238 72.3616 85.5876 72.3616 84.8287V65.5319C72.3616 64.773 71.7111 64.1226 70.9523 64.1226Z" fill="#304091"/>
<path d="M75.9396 73.771C75.1807 73.771 74.5303 74.4214 74.5303 75.1803V84.8287C74.5303 85.5876 75.1807 86.2381 75.9396 86.2381C76.6984 86.2381 77.349 85.5876 77.349 84.8287V75.1803C77.349 74.4214 76.6984 73.771 75.9396 73.771Z" fill="#304091"/>
</svg>
