<svg width="34" height="34" viewBox="0 0 34 34" fill="none" xmlns="http://www.w3.org/2000/svg">
<path d="M2.47754 10.0658C2.47754 10.6299 2.93482 11.0872 3.49891 11.0872H10.0661C10.6301 11.0872 11.0874 10.6299 11.0874 10.0658V3.49864C11.0874 2.93455 10.6301 2.47727 10.0661 2.47727H3.49891C2.93482 2.47727 2.47754 2.93455 2.47754 3.49863V10.0658Z" fill="#304091"/>
<rect width="18.7392" height="8.60989" rx="1.02137" transform="matrix(1 0 0 -1 12.1006 11.0872)" fill="#304091"/>
<path d="M2.47754 19.6888C2.47754 20.2529 2.93482 20.7102 3.49891 20.7102H10.0661C10.6301 20.7102 11.0874 20.2529 11.0874 19.6888V13.1217C11.0874 12.5576 10.6301 12.1003 10.0661 12.1003H3.49891C2.93482 12.1003 2.47754 12.5576 2.47754 13.1217V19.6888Z" fill="#304091"/>
<rect width="18.7392" height="8.60989" rx="1.02137" transform="matrix(1 0 0 -1 12.1006 20.7102)" fill="#304091"/>
<path d="M2.47754 29.3121C2.47754 29.8762 2.93482 30.3335 3.49891 30.3335H10.0661C10.6301 30.3335 11.0874 29.8762 11.0874 29.3121V22.745C11.0874 22.1809 10.6301 21.7236 10.0661 21.7236H3.49891C2.93482 21.7236 2.47754 22.1809 2.47754 22.745V29.3121Z" fill="#304091"/>
<rect width="18.7392" height="8.60989" rx="1.02137" transform="matrix(1 0 0 -1 12.1006 30.3335)" fill="#304091"/>
</svg>
