<svg width="55" height="54" viewBox="0 0 55 54" fill="none" xmlns="http://www.w3.org/2000/svg">
<rect x="0.5" width="54" height="54" rx="27" fill="#304091"/>
<path d="M16.7588 39V30.66C16.7588 29.88 16.9488 29.17 17.3288 28.53C17.7288 27.89 18.2488 27.38 18.8888 27C19.5288 26.62 20.2388 26.43 21.0188 26.43H33.6188C33.6588 26.43 33.6988 26.41 33.7388 26.37C33.7788 26.33 33.7988 26.29 33.7988 26.25V21.84C33.7988 21.8 33.7788 21.76 33.7388 21.72C33.6988 21.68 33.6588 21.66 33.6188 21.66H21.1988C21.1588 21.66 21.1188 21.68 21.0788 21.72C21.0388 21.76 21.0188 21.8 21.0188 21.84V23.46H16.7588V21.63C16.7588 20.85 16.9488 20.14 17.3288 19.5C17.7288 18.86 18.2488 18.35 18.8888 17.97C19.5288 17.59 20.2388 17.4 21.0188 17.4H33.7988C34.5588 17.4 35.2588 17.59 35.8988 17.97C36.5588 18.35 37.0788 18.86 37.4588 19.5C37.8588 20.14 38.0588 20.85 38.0588 21.63V26.46C38.0588 27.24 37.8588 27.95 37.4588 28.59C37.0788 29.23 36.5588 29.75 35.8988 30.15C35.2588 30.53 34.5588 30.72 33.7988 30.72H21.1988C21.1588 30.72 21.1188 30.74 21.0788 30.78C21.0388 30.82 21.0188 30.86 21.0188 30.9V34.56C21.0188 34.6 21.0388 34.64 21.0788 34.68C21.1188 34.72 21.1588 34.74 21.1988 34.74H38.0588V39H16.7588Z" fill="white"/>
</svg>
