<svg width="55" height="54" viewBox="0 0 55 54" fill="none" xmlns="http://www.w3.org/2000/svg">
<rect x="0.5" width="54" height="54" rx="27" fill="#304091"/>
<path d="M20.9574 39C20.1774 39 19.4674 38.81 18.8274 38.43C18.1874 38.03 17.6674 37.51 17.2674 36.87C16.8874 36.23 16.6974 35.53 16.6974 34.77V33.27H20.9874V34.56C20.9874 34.6 20.9974 34.64 21.0174 34.68C21.0574 34.72 21.0974 34.74 21.1374 34.74H33.5574C33.5974 34.74 33.6374 34.72 33.6774 34.68C33.7174 34.64 33.7374 34.6 33.7374 34.56V30.42C33.7374 30.36 33.7174 30.32 33.6774 30.3C33.6374 30.26 33.5974 30.24 33.5574 30.24H20.3274V25.95H32.7174C32.7774 25.95 32.8174 25.94 32.8374 25.92C32.8774 25.88 32.8974 25.84 32.8974 25.8V21.84C32.8974 21.8 32.8774 21.76 32.8374 21.72C32.8174 21.68 32.7774 21.66 32.7174 21.66H21.1374C21.0974 21.66 21.0574 21.68 21.0174 21.72C20.9974 21.76 20.9874 21.8 20.9874 21.84V23.4H16.6974V21.63C16.6974 20.85 16.8874 20.14 17.2674 19.5C17.6674 18.86 18.1874 18.35 18.8274 17.97C19.4674 17.59 20.1774 17.4 20.9574 17.4H32.9274C33.7074 17.4 34.4174 17.59 35.0574 17.97C35.6974 18.35 36.2074 18.86 36.5874 19.5C36.9674 20.14 37.1574 20.85 37.1574 21.63V25.98C37.1574 26.22 37.1374 26.47 37.0974 26.73C37.0774 26.97 37.0274 27.19 36.9474 27.39C37.2874 27.77 37.5474 28.21 37.7274 28.71C37.9074 29.19 37.9974 29.69 37.9974 30.21V34.77C37.9974 35.53 37.8074 36.23 37.4274 36.87C37.0474 37.51 36.5274 38.03 35.8674 38.43C35.2274 38.81 34.5274 39 33.7674 39H20.9574Z" fill="white"/>
</svg>
