<svg width="107" height="106" viewBox="0 0 107 106" fill="none" xmlns="http://www.w3.org/2000/svg">
<rect width="106.755" height="106" rx="53" fill="white"/>
<path d="M85.3529 20H21.4019C20.647 20 20 20.6471 20 21.402C20 26.1471 20 81.7941 20 84.598C20 85.3529 20.647 86 21.4019 86H85.3529C86.1078 86 86.7549 85.3529 86.7549 84.598C86.7549 83.951 86.7549 25.0686 86.7549 21.402C86.7549 20.6471 86.1078 20 85.3529 20ZM22.8039 22.8039H84.0588V31H22.8039V22.8039ZM22.8039 83.1961V79.098H68.7451C69.5 79.098 70.147 78.451 70.147 77.6961C70.147 76.9412 69.5 76.2941 68.7451 76.2941H22.8039V33.8039H84.0588V83.3039L22.8039 83.1961Z" fill="#304091"/>
<path d="M77.0489 25.4998H65.941C65.1861 25.4998 64.5391 26.1468 64.5391 26.9017C64.5391 27.6566 65.1861 28.3037 65.941 28.3037H76.941C77.6959 28.3037 78.343 27.6566 78.343 26.9017C78.343 26.1468 77.8038 25.4998 77.0489 25.4998Z" fill="#304091"/>
<path d="M31.1082 25.4998H28.4121V28.1958H31.1082V25.4998Z" fill="#304091"/>
<path d="M39.4119 25.4998H36.7158V28.1958H39.4119V25.4998Z" fill="#304091"/>
<path d="M47.824 25.4998H45.1279V28.1958H47.824V25.4998Z" fill="#304091"/>
<path d="M46.0984 45.1273C45.5592 44.5881 44.6964 44.5881 44.1572 45.1273L32.9415 56.1273C32.4023 56.6665 32.4023 57.5293 32.9415 58.0685L44.0493 69.0685C44.5886 69.6077 45.4513 69.6077 45.9905 69.0685C46.5298 68.5292 46.5298 67.6665 45.9905 67.1273L35.8533 57.0979L45.9905 47.0685C46.6376 46.5293 46.6376 45.6665 46.0984 45.1273Z" fill="#304091"/>
<path d="M62.706 45.1273C62.1667 44.5881 61.304 44.5881 60.7648 45.1273C60.2255 45.6665 60.2255 46.5293 60.7648 47.0685L70.902 57.0979L60.7648 67.1273C60.2255 67.6665 60.2255 68.5292 60.7648 69.0685C61.304 69.6077 62.1667 69.6077 62.706 69.0685L73.8138 58.0685C74.353 57.5293 74.353 56.6665 73.8138 56.1273L62.706 45.1273Z" fill="#304091"/>
</svg>
