<svg width="108" height="106" viewBox="0 0 108 106" fill="none" xmlns="http://www.w3.org/2000/svg">
<rect width="107.078" height="106" rx="53" fill="white"/>
<path d="M85.3529 55.6961C86.1078 55.6961 86.7549 55.049 86.7549 54.2941V21.402C86.7549 20.6471 86.1078 20 85.3529 20H21.4019C20.647 20 20 20.6471 20 21.402V54.4019C20 55.1568 20.647 55.8039 21.4019 55.8039C22.2647 55.8039 51.0588 55.8039 51.9216 55.8039V64H27.0098C26.2549 64 25.6079 64.6471 25.6079 65.402V72.4118C22.4804 73.0588 20 75.8628 20 79.098C20 82.8726 23.1274 86 27.0098 86C30.8922 86 34.0196 82.8726 34.0196 79.098C34.0196 75.7549 31.647 72.951 28.4117 72.4118V66.8039H52.1372V72.4118C49.0098 73.0588 46.5294 75.8628 46.5294 79.098C46.5294 82.8726 49.6569 86 53.5392 86C57.3137 86 60.549 82.8726 60.549 79.098C60.549 75.7549 58.1764 72.951 54.9412 72.4118V66.8039H78.6666V72.4118C75.5392 73.0588 73.0588 75.8628 73.0588 79.098C73.0588 82.8726 76.1863 86 80.0686 86C83.8431 86 87.0784 82.8726 87.0784 79.098C87.0784 75.7549 84.7059 72.951 81.4706 72.4118V65.402C81.4706 64.6471 80.8235 64 80.0686 64H54.8333V55.6961C55.8039 55.6961 84.4902 55.6961 85.3529 55.6961ZM31.2157 79.098C31.2157 81.3628 29.3824 83.1961 27.1177 83.1961C24.8529 83.1961 23.0196 81.3628 23.0196 79.098C23.0196 76.8333 24.8529 75 27.1177 75C29.2745 75 31.2157 76.8333 31.2157 79.098ZM57.5294 79.098C57.5294 81.3628 55.6961 83.1961 53.4314 83.1961C51.1667 83.1961 49.3333 81.3628 49.3333 79.098C49.3333 76.8333 51.1667 75 53.4314 75C55.6961 75 57.5294 76.8333 57.5294 79.098ZM83.9509 79.098C83.9509 81.3628 82.1176 83.1961 79.8529 83.1961C77.5882 83.1961 75.7549 81.3628 75.7549 79.098C75.7549 76.8333 77.5882 75 79.8529 75C82.1176 75 83.9509 76.8333 83.9509 79.098ZM22.9118 22.8039H84.1666V53H66.049V48.902C66.049 43.7255 62.8137 39.3039 58.2843 37.4706C59.6863 36.1765 60.4412 34.451 60.4412 32.402C60.4412 28.6274 57.3137 25.5 53.4314 25.5C49.6568 25.5 46.4216 28.6274 46.4216 32.402C46.4216 34.3431 47.2843 36.1765 48.5784 37.4706C44.1569 39.3039 40.8137 43.7255 40.8137 48.902V53H22.8039V22.8039H22.9118ZM49.3333 32.402C49.3333 30.1373 51.1667 28.3039 53.4314 28.3039C55.6961 28.3039 57.5294 30.1373 57.5294 32.402C57.5294 34.6667 55.6961 36.5 53.4314 36.5C51.1667 36.5 49.3333 34.6667 49.3333 32.402ZM43.7255 48.902C43.7255 43.6177 48.0392 39.3039 53.4314 39.3039C58.8235 39.3039 63.1372 43.6177 63.1372 48.902V53H60.4412V47.5C60.4412 46.7451 59.7941 46.098 59.0392 46.098C58.2843 46.098 57.6372 46.7451 57.6372 47.5V53H49.3333V47.5C49.3333 46.7451 48.6863 46.098 47.9314 46.098C47.1765 46.098 46.5294 46.7451 46.5294 47.5V53H43.8333V48.902H43.7255Z" fill="#304091"/>
<path d="M29.7058 33.804H27.0098V36.5H29.7058V33.804Z" fill="#304091"/>
<path d="M35.3142 33.804H32.6182V36.5H35.3142V33.804Z" fill="#304091"/>
<path d="M40.8133 33.804H38.1172V36.5H40.8133V33.804Z" fill="#304091"/>
<path d="M69.9314 33.804H67.2354V36.5H69.9314V33.804Z" fill="#304091"/>
<path d="M75.5389 33.804H72.8428V36.5H75.5389V33.804Z" fill="#304091"/>
<path d="M81.1472 33.804H78.4512V36.5H81.1472V33.804Z" fill="#304091"/>
</svg>
